# xmcd CD database file
#
# Track frame offsets:
#	182
#	27580
#	55107
#	109047
#	147327
#	187070
#	194322
#
# Disc length: 2893 seconds
#
# Revision: 0
# Processed by: cddbd v1.5.2PL0 Copyright (c) Steve Scherf et al.
# Submitted via: CDex 1.70beta2
#
DISCID=640b4b07
DTITLE=Usul - Samadhi
DYEAR=2000
DGENRE=New Age
TTITLE0=Ambar
TTITLE1=Reflexion
TTITLE2=Samadhi
TTITLE3=Alas Blancas
TTITLE4=Govinda
TTITLE5=Rudra
TTITLE6=Danza Del Aire
EXTD=YEAR: 2000
EXTT0=
EXTT1=
EXTT2=
EXTT3=
EXTT4=
EXTT5=
EXTT6=
PLAYORDER=
